<svg width="171" height="172" viewBox="0 0 171 172" fill="none" xmlns="http://www.w3.org/2000/svg">
<path d="M170.8 170.76V171.57H124.9C123.64 167.25 122.11 162.3 120.31 156.72C118.69 151.14 116.89 145.2 114.91 138.9H56.59C52.99 151.5 49.66 162.39 46.6 171.57H0.7V171.03L56.05 0.659995H115.45L170.8 170.76ZM85.21 31.44C83.41 40.62 80.8 51.78 77.38 64.92C73.96 78.06 70.36 91.47 66.58 105.15H105.19C101.23 91.47 97.54 78.06 94.12 64.92C90.7 51.78 88.09 40.62 86.29 31.44H85.21Z" fill="#59AD71"/>
</svg>
